<svg width="191" height="52" viewBox="0 0 191 52" fill="none" xmlns="http://www.w3.org/2000/svg">
<g clip-path="url(#clip0_46_190)">
<path opacity="0.963" fill-rule="evenodd" clip-rule="evenodd" d="M23.6931 -0.0809975C24.6634 -0.0809975 25.6338 -0.0809975 26.6042 -0.0809975C31.5396 1.05437 34.7471 4.07826 36.2269 8.99065C36.9759 11.8647 36.922 14.7266 36.0652 17.5763C35.3858 19.4559 34.7389 21.3459 34.1245 23.2461C32.5863 27.6483 33.9069 30.8072 38.0868 32.7227C40.4239 33.7995 42.6342 33.5834 44.7176 32.0748C46.2233 30.5128 47.7866 29.0009 49.4077 27.5389C51.2223 27.2187 52.2467 28.0016 52.4805 29.8878C51.4248 35.0224 48.352 38.2352 43.2621 39.5265C42.8848 39.6345 42.5073 39.6345 42.13 39.5265C42.6579 38.8135 42.4691 38.4086 41.5639 38.3115C40.6164 38.312 40.2661 38.7439 40.5127 39.6075C38.0066 39.6802 35.7154 38.9783 33.6393 37.5016C34.4696 40.0125 35.8981 42.1453 37.9251 43.9003C39.6264 44.9957 41.4054 45.9677 43.2621 46.8162C44.5593 47.7303 44.9097 48.9453 44.3133 50.4611C43.7232 51.2292 42.9415 51.6342 41.9683 51.676C41.8783 51.7381 41.8245 51.8191 41.8065 51.919C41.2675 51.919 40.7283 51.919 40.1892 51.919C40.1713 51.8191 40.1174 51.7381 40.0275 51.676C38.7929 51.2692 37.5531 51.1073 36.3078 51.19C35.5233 50.4314 34.6338 49.8105 33.6393 49.3271C32.4268 49.6919 31.672 49.2599 31.3751 48.0312C29.0121 46.1596 27.2331 43.8378 26.0381 41.0654C24.3749 44.6753 21.8143 47.4562 18.3561 49.4081C17.9226 50.6623 17.0601 51.0672 15.7684 50.6231C15.0747 50.8372 14.3738 51.0263 13.666 51.19C13.5273 51.5171 13.3117 51.7601 13.0191 51.919C12.5878 51.919 12.1565 51.919 11.7252 51.919C11.604 51.6362 11.3884 51.4742 11.0783 51.433C10.4362 51.5459 9.78928 51.6269 9.1376 51.676C9.04768 51.7381 8.99377 51.8191 8.97587 51.919C8.54459 51.919 8.11333 51.919 7.68205 51.919C7.0327 51.2944 6.46665 50.5924 5.98391 49.8131C5.40797 48.3909 5.75838 47.284 7.03514 46.4922C8.31609 46.1175 9.60991 45.7935 10.9166 45.5202C13.7961 44.472 16.1142 42.6901 17.8709 40.1745C15.3399 39.3987 12.7522 39.1286 10.108 39.3645C8.19796 40.0023 6.31114 40.7042 4.4475 41.4704C3.5477 41.8738 2.7121 41.7928 1.94073 41.2274C0.946291 39.6757 1.0002 38.1636 2.10246 36.6916C4.922 34.0934 8.26435 32.7974 12.1296 32.8037C13.5696 32.9064 14.9982 33.0955 16.4153 33.3707C22.2471 33.7861 26.2094 31.2752 28.3023 25.838C29.408 21.4961 28.3568 17.7971 25.1486 14.7414C24.5555 14.3635 23.9627 13.9855 23.3696 13.6075C21.4772 12.7962 19.5905 11.9862 17.7091 11.1776C15.351 8.60378 15.1623 5.87689 17.1431 2.99688C18.9357 1.11341 21.119 0.0874456 23.6931 -0.0809975ZM23.6931 2.18692C24.3689 2.12897 24.7732 2.39895 24.906 2.99688C24.2454 3.46406 23.6793 3.35606 23.2079 2.6729C23.3437 2.47283 23.5055 2.31084 23.6931 2.18692ZM20.2968 2.34891C21.8118 2.3065 22.2162 2.95447 21.5097 4.29283C20.8122 5.22559 19.9227 5.57657 18.8412 5.34579C18.3043 4.68954 18.3312 4.01456 18.9221 3.32087C19.3541 2.9317 19.8124 2.60771 20.2968 2.34891ZM30.6473 4.13084C32.5434 4.4898 33.7564 5.62376 34.2862 7.53271C34.4778 9.03259 33.9118 9.38359 32.5881 8.58567C31.3858 7.69036 30.631 6.5024 30.3239 5.02181C30.3656 4.69631 30.4735 4.39931 30.6473 4.13084ZM26.9276 6.23676C28.1514 6.3502 29.2026 6.83619 30.0813 7.6947C30.6363 8.3207 31.0677 9.02268 31.3751 9.80062C31.5207 11.3375 30.8469 11.8504 29.3535 11.3396C27.6463 10.5214 26.5681 9.19849 26.119 7.37072C26.2095 6.85039 26.4791 6.47241 26.9276 6.23676ZM31.6177 14.3364C33.3021 15.2626 34.4072 14.7766 34.9331 12.8785C34.9816 13.9323 34.8199 14.9583 34.4479 15.9564C33.8198 17.2499 33.065 17.3578 32.1837 16.2804C31.7582 15.699 31.5697 15.051 31.6177 14.3364ZM50.0546 30.3738C50.2163 30.3738 50.3781 30.3738 50.5398 30.3738C50.6 30.7824 50.4652 31.1064 50.1355 31.3458C49.8623 31.051 49.8355 30.727 50.0546 30.3738ZM51.1867 31.8318C51.3931 31.9753 51.3931 32.1373 51.1867 32.3178C51.015 32.1679 51.015 32.0059 51.1867 31.8318ZM46.9818 33.1277C48.2168 33.0738 48.4323 33.5327 47.6287 34.5047C46.467 35.175 46.0627 34.8781 46.4158 33.6137C46.6613 33.5063 46.85 33.3443 46.9818 33.1277ZM49.4077 33.9377C49.9566 34.1316 50.0375 34.4556 49.6503 34.9097C49.2421 35.3391 48.8916 35.312 48.5991 34.8287C48.7919 34.4472 49.0615 34.1502 49.4077 33.9377ZM43.1003 35.2336C44.0382 35.2762 44.3346 35.7081 43.9898 36.5296C43.1696 37.3593 42.3879 37.3593 41.6448 36.5296C41.9367 35.858 42.4219 35.4261 43.1003 35.2336ZM45.688 36.6916C46.7643 36.7073 46.926 37.1123 46.1732 37.9065C45.3556 38.3212 45.0053 38.0783 45.1219 37.1776C45.3674 37.0702 45.5562 36.9082 45.688 36.6916Z" fill="#00A9DA"/>
<path opacity="0.715" fill-rule="evenodd" clip-rule="evenodd" d="M31.6177 5.91277C32.6285 5.87103 33.0058 6.33001 32.7498 7.28972C31.8362 7.31723 31.4589 6.85825 31.6177 5.91277Z" fill="#00A9DA"/>
<path opacity="0.78" fill-rule="evenodd" clip-rule="evenodd" d="M28.0597 8.66667C29.0529 8.55585 29.5651 8.98783 29.5961 9.96262C29.0385 10.3657 28.5533 10.2577 28.1406 9.63863C28.0605 9.31906 28.0335 8.99508 28.0597 8.66667Z" fill="#00A9DA"/>
<path opacity="0.947" fill-rule="evenodd" clip-rule="evenodd" d="M62.8311 12.0685C65.4951 11.6238 67.7324 12.3798 69.5428 14.3365C70.048 15.1326 70.3715 15.9965 70.5131 16.9284C70.621 19.5742 70.621 22.2202 70.5131 24.866C69.9988 27.541 68.4086 29.1339 65.7422 29.6449C63.1743 30.1569 60.9909 29.4819 59.1922 27.6199C58.4415 26.5522 58.0101 25.3643 57.8984 24.0561C57.7905 21.9502 57.7905 19.8442 57.8984 17.7383C58.1232 14.5779 59.7673 12.6879 62.8311 12.0685ZM63.3163 15.3084C64.6547 15.0622 65.7598 15.4401 66.6317 16.4424C66.789 16.7489 66.8969 17.0729 66.9551 17.4143C67.063 19.7362 67.063 22.0582 66.9551 24.3801C66.3778 26.1682 65.1648 26.8432 63.3163 26.405C62.1386 25.9239 61.5187 25.0329 61.4564 23.7321C61.3134 21.5115 61.3673 19.2975 61.6181 17.0903C61.8948 16.1927 62.4609 15.5987 63.3163 15.3084Z" fill="#00A9DA"/>
<path opacity="0.935" fill-rule="evenodd" clip-rule="evenodd" d="M16.5771 13.2025C21.7268 12.9169 25.2309 15.1579 27.0893 19.9252C26.9815 20.0333 26.8738 20.0333 26.7659 19.9252C23.5271 16.8324 19.8613 16.2384 15.7684 18.1433C11.6401 20.8288 10.1036 24.5816 11.1592 29.4019C8.43947 26.4397 7.73866 23.0378 9.05673 19.1963C10.544 15.896 13.0508 13.898 16.5771 13.2025Z" fill="#00A9DA"/>
<path opacity="0.936" fill-rule="evenodd" clip-rule="evenodd" d="M77.71 16.9283C78.9538 16.9698 80.1398 17.2668 81.268 17.8193C81.8869 18.3552 82.0757 19.0301 81.834 19.8442C81.7532 20.1412 81.5644 20.3302 81.268 20.4112C80.729 20.5193 80.1898 20.5193 79.6507 20.4112C78.8799 20.037 78.0713 19.929 77.2248 20.0872C76.8304 20.2126 76.5338 20.4556 76.3353 20.8162C76.181 22.614 76.235 24.3959 76.497 26.162C76.9321 26.5506 77.4443 26.7666 78.0335 26.81C78.8421 26.594 79.6507 26.3779 80.4594 26.162C81.7862 26.2783 82.2445 26.9804 81.834 28.2679C81.4758 28.733 81.0175 29.0839 80.4594 29.3209C78.4709 29.9441 76.5302 29.836 74.6372 28.9969C73.6353 28.3149 73.0154 27.3698 72.7773 26.162C72.6694 24.272 72.6694 22.3822 72.7773 20.4922C73.5235 18.0534 75.1676 16.8655 77.71 16.9283Z" fill="#00A9DA"/>
<path opacity="0.944" fill-rule="evenodd" clip-rule="evenodd" d="M85.4729 16.9283C86.224 16.9397 86.79 17.2637 87.171 17.9003C87.3968 19.1282 87.4777 20.3702 87.4136 21.6262C88.547 21.5993 89.6791 21.6262 90.8099 21.7072C93.3555 22.1852 94.4606 23.7241 94.1253 26.324C93.7703 28.2462 92.6112 29.2992 90.6482 29.4829C88.7613 29.5909 86.8746 29.5909 84.9877 29.4829C84.4217 29.3479 84.0712 28.9969 83.9365 28.4299C83.8286 24.9741 83.8286 21.5181 83.9365 18.0623C84.2739 17.4232 84.786 17.0451 85.4729 16.9283ZM87.4136 24.5421C88.2779 24.5152 89.1404 24.5422 90.0013 24.6231C90.669 25.0493 90.8038 25.6162 90.4056 26.324C90.2843 26.4254 90.1494 26.5064 90.0013 26.567C89.1404 26.6478 88.2779 26.6749 87.4136 26.648C87.4136 25.9461 87.4136 25.244 87.4136 24.5421Z" fill="#00A9DA"/>
<path opacity="0.957" fill-rule="evenodd" clip-rule="evenodd" d="M98.0876 16.9283C98.7819 17.0197 99.348 17.3437 99.7858 17.9003C100.864 19.7362 101.942 21.5722 103.02 23.4081C104.226 21.3424 105.493 19.3174 106.821 17.3333C107.746 16.8367 108.635 16.9177 109.489 17.5763C109.756 21.3419 109.809 25.1218 109.651 28.9159C108.679 29.9188 107.655 29.9727 106.578 29.0779C106.37 27.3658 106.262 25.6379 106.255 23.8941C105.629 25.1761 104.901 26.3911 104.072 27.5389C103.045 27.9786 102.156 27.7895 101.403 26.972C100.905 25.9205 100.366 24.8944 99.7858 23.8941C99.7783 25.6379 99.6705 27.3658 99.4623 29.0779C98.4855 29.9403 97.5151 29.9403 96.5512 29.0779C96.2852 25.3663 96.2312 21.6404 96.3895 17.9003C96.8412 17.3377 97.4073 17.0137 98.0876 16.9283Z" fill="#00A9DA"/>
<path opacity="0.95" fill-rule="evenodd" clip-rule="evenodd" d="M114.099 16.9283C114.973 16.8676 115.647 17.1916 116.12 17.9003C116.174 19.8442 116.228 21.7882 116.282 23.7321C117.651 21.5573 119.079 19.4243 120.568 17.3333C121.624 16.7353 122.567 16.8704 123.398 17.7383C123.664 21.3958 123.718 25.0677 123.56 28.7539C123.03 29.6625 122.248 29.9595 121.215 29.6449C120.871 29.4631 120.575 29.2201 120.325 28.9159C120.124 27.0351 120.016 25.1453 120.002 23.2461C118.673 25.3954 117.244 27.4743 115.716 29.4829C114.728 29.9057 113.839 29.7706 113.047 29.0779C112.781 25.3663 112.727 21.6404 112.886 17.9003C113.162 17.3997 113.566 17.0758 114.099 16.9283Z" fill="#00A9DA"/>
<path opacity="0.954" fill-rule="evenodd" clip-rule="evenodd" d="M128.169 16.9283C129.005 16.9554 129.625 17.3333 130.029 18.0623C130.11 19.303 130.136 20.545 130.11 21.7882C131.296 21.7882 132.482 21.7882 133.668 21.7882C133.596 20.3665 133.677 18.9627 133.91 17.5763C135.02 16.7284 136.044 16.8363 136.983 17.9003C137.091 21.5181 137.091 25.1361 136.983 28.7539C136.489 29.5857 135.761 29.8827 134.8 29.6449C134.42 29.5888 134.124 29.3998 133.91 29.0779C133.677 27.5833 133.596 26.0713 133.668 24.5421C132.482 24.5421 131.296 24.5421 130.11 24.5421C130.136 25.8931 130.11 27.243 130.029 28.5919C129.289 29.7968 128.291 30.0398 127.037 29.3209C126.882 29.091 126.747 28.848 126.633 28.5919C126.525 25.082 126.525 21.5722 126.633 18.0623C126.97 17.4232 127.482 17.0451 128.169 16.9283Z" fill="#00A9DA"/>
<path opacity="0.947" fill-rule="evenodd" clip-rule="evenodd" d="M143.533 16.9283C145.707 16.6016 147.621 17.1415 149.274 18.5483C150.143 19.9853 150.493 21.5513 150.326 23.2461C150.364 24.5097 150.229 25.7517 149.921 26.972C148.832 28.8956 147.16 29.8137 144.908 29.7259C142.42 29.8313 140.694 28.7515 139.732 26.486C139.579 24.2069 139.633 21.939 139.894 19.6822C140.667 18.1791 141.88 17.2611 143.533 16.9283ZM144.018 20.0062C144.614 19.9795 145.207 20.0064 145.797 20.0872C146.271 20.2913 146.567 20.6424 146.687 21.1402C146.836 22.7721 146.782 24.392 146.525 26C145.683 26.7034 144.74 26.8383 143.695 26.405C143.446 26.1492 143.257 25.8521 143.129 25.514C142.979 23.8821 143.033 22.2622 143.29 20.6542C143.516 20.3999 143.759 20.1838 144.018 20.0062Z" fill="#00A9DA"/>
<path opacity="0.939" fill-rule="evenodd" clip-rule="evenodd" d="M159.059 16.9283C159.81 16.9397 160.376 17.2637 160.757 17.9003C160.954 19.0215 161.062 20.1554 161.08 21.3022C162.012 19.8292 163.063 18.4522 164.234 17.1713C165.56 16.7552 166.422 17.1872 166.822 18.4673C166.704 18.6939 166.623 18.9369 166.579 19.1963C165.604 20.5781 164.661 21.9821 163.749 23.4081C164.913 24.9493 165.937 26.5692 166.822 28.2679C166.351 29.6366 165.436 30.0416 164.072 29.4829C163.013 28.1513 162.015 26.7743 161.08 25.352C161.056 26.5501 160.948 27.738 160.757 28.9159C159.928 29.8059 158.984 29.941 157.927 29.3209C157.733 29.1746 157.598 28.9857 157.522 28.7539C157.469 27.566 157.415 26.3779 157.361 25.19C156.477 26.6093 155.534 27.9862 154.53 29.3209C153.566 29.9254 152.676 29.8444 151.862 29.0779C151.555 28.4889 151.555 27.8948 151.862 27.2959C152.791 26.0282 153.681 24.7322 154.53 23.4081C153.619 21.9821 152.675 20.5781 151.7 19.1963C151.433 18.323 151.676 17.6479 152.428 17.1713C153.095 17.033 153.742 17.0871 154.369 17.3333C155.425 18.6674 156.423 20.0443 157.361 21.4642C157.415 20.3302 157.469 19.1963 157.522 18.0623C157.86 17.4232 158.372 17.0451 159.059 16.9283Z" fill="#00A9DA"/>
<path opacity="0.935" fill-rule="evenodd" clip-rule="evenodd" d="M170.218 16.9283C170.988 17.003 171.554 17.381 171.916 18.0623C171.97 19.3043 172.025 20.5462 172.078 21.7882C173.178 20.2591 174.337 18.7743 175.555 17.3333C176.491 16.9151 177.326 17.05 178.062 17.7383C178.366 18.2729 178.366 18.813 178.062 19.3583C177.033 20.6855 176.035 22.0354 175.07 23.4081C176.152 24.8434 177.203 26.3013 178.224 27.7819C178.397 29.0126 177.858 29.6606 176.606 29.7259C176.242 29.7046 175.891 29.6236 175.555 29.4829C174.395 27.9979 173.237 26.513 172.078 25.028C172.025 26.2159 171.97 27.404 171.916 28.5919C171.321 29.7119 170.431 30.009 169.248 29.4829C169.058 29.2938 168.871 29.1049 168.682 28.9159C168.416 25.3664 168.361 21.8026 168.52 18.2243C168.813 17.4179 169.379 16.9859 170.218 16.9283Z" fill="#00A9DA"/>
<path opacity="0.95" fill-rule="evenodd" clip-rule="evenodd" d="M190.919 18.0623C190.919 21.6262 190.919 25.19 190.919 28.7539C190.358 29.6578 189.549 29.9548 188.493 29.6449C188.099 29.5195 187.803 29.2765 187.604 28.9159C187.398 27.0374 187.29 25.1476 187.28 23.2461C186.095 25.082 184.908 26.918 183.722 28.7539C183.046 29.663 182.157 29.9599 181.054 29.6449C180.649 29.4558 180.353 29.1589 180.164 28.7539C180.056 25.1361 180.056 21.5181 180.164 17.9003C181.235 16.6068 182.314 16.6068 183.399 17.9003C183.452 19.8442 183.507 21.7882 183.561 23.7321C184.929 21.5573 186.357 19.4243 187.846 17.3333C189.101 16.6892 190.125 16.9322 190.919 18.0623Z" fill="#00A9DA"/>
<path opacity="0.958" fill-rule="evenodd" clip-rule="evenodd" d="M18.6795 18.2243C22.3688 17.7887 25.2529 19.0846 27.3319 22.1121C27.3879 27.3724 24.8811 30.6933 19.8116 32.0748C17.5254 32.4906 15.3691 32.1397 13.3425 31.0218C12.1207 29.0852 11.7163 26.9793 12.1295 24.7041C13.0066 21.2066 15.1899 19.0466 18.6795 18.2243ZM22.8844 21.7882C23.487 21.8001 23.9722 22.0431 24.34 22.5171C24.2387 22.6386 24.1579 22.7737 24.0974 22.9221C23.3352 23.25 22.7153 23.088 22.2375 22.4361C22.4072 22.1582 22.6227 21.9422 22.8844 21.7882ZM16.2536 23.4081C17.1709 23.5743 17.3056 24.0063 16.6579 24.7041C16.2952 24.9927 15.8908 25.0737 15.445 24.947C15.2746 24.7222 15.2476 24.4792 15.3641 24.2181C15.6438 23.91 15.9403 23.6399 16.2536 23.4081ZM22.3992 26.324C22.6011 26.4591 22.7089 26.675 22.7227 26.972C22.5391 28.3238 21.7575 29.0797 20.3776 29.2399C19.2103 29.0688 18.4825 28.4208 18.1943 27.2959C19.6371 27.0722 21.0386 26.7482 22.3992 26.324Z" fill="#00A9DA"/>
<path opacity="0.938" fill-rule="evenodd" clip-rule="evenodd" d="M37.9251 19.1963C38.3811 19.1554 38.8123 19.2364 39.2189 19.4393C40.7901 21.1809 41.3023 23.2058 40.7553 25.514C40.2913 27.4899 39.1322 28.8668 37.2782 29.6449C36.8468 29.7529 36.4157 29.7529 35.9843 29.6449C35.5676 29.0933 35.5676 28.5533 35.9843 28.0249C35.1844 27.3284 35.1306 26.5723 35.8226 25.757C35.1222 24.9168 35.23 24.1878 36.1461 23.5701C35.6585 22.5243 35.9281 21.7413 36.9547 21.2212C36.676 20.2471 36.9995 19.5723 37.9251 19.1963Z" fill="#00A9DA"/>
<path opacity="0.946" fill-rule="evenodd" clip-rule="evenodd" d="M-0.080864 33.6137C-0.080864 32.6417 -0.080864 31.6698 -0.080864 30.6978C1.24224 27.4419 3.66815 25.903 7.19687 26.081C8.11372 26.537 8.41021 27.266 8.08637 28.2679C7.81748 28.6595 7.46706 28.9564 7.03514 29.1589C7.17683 30.2335 6.69165 30.8005 5.57959 30.8598C5.60025 32.0812 5.00726 32.6212 3.80059 32.4798C3.70341 33.4955 3.16432 33.8735 2.18332 33.6137C1.81005 34.3599 1.21704 34.6028 0.404318 34.3427C0.197123 34.1144 0.0353962 33.8714 -0.080864 33.6137Z" fill="#00A9DA"/>
<path opacity="0.823" fill-rule="evenodd" clip-rule="evenodd" d="M185.582 35.7196C185.742 37.5806 185.797 39.4706 185.744 41.3894C185.42 41.3894 185.097 41.3894 184.773 41.3894C184.801 40.3081 184.773 39.2281 184.693 38.1495C183.612 39.3661 182.508 40.554 181.377 41.7134C181.215 39.8265 181.162 37.9367 181.215 36.0436C181.592 36.0436 181.971 36.0436 182.348 36.0436C182.32 37.071 182.348 38.0969 182.428 39.1215C183.454 37.9598 184.505 36.8259 185.582 35.7196Z" fill="#00A9DA"/>
<path opacity="0.831" fill-rule="evenodd" clip-rule="evenodd" d="M66.0656 35.8816C68.2996 35.6893 69.3778 36.7154 69.3002 38.9595C67.9525 38.9595 66.6047 38.9595 65.257 38.9595C65.4831 40.1317 66.1838 40.6446 67.3594 40.4984C67.8141 40.2321 68.1914 39.8812 68.4915 39.4455C69.5025 39.8336 69.5563 40.3467 68.6533 40.9844C67.2204 41.8372 65.8997 41.7022 64.6909 40.5794C63.8262 39.0045 64.0148 37.5736 65.257 36.2866C65.5505 36.164 65.82 36.029 66.0656 35.8816ZM66.3891 36.8536C67.3541 36.7966 67.9472 37.2284 68.1681 38.1495C67.1963 38.1764 66.2259 38.1494 65.257 38.0685C65.558 37.5785 65.9353 37.1735 66.3891 36.8536Z" fill="#00A9DA"/>
<path opacity="0.807" fill-rule="evenodd" clip-rule="evenodd" d="M83.3704 35.8816C85.7228 35.8892 86.774 37.0773 86.5241 39.4455C85.7051 41.6382 84.3035 42.1242 82.3192 40.9034C82.2384 42.0361 82.2115 43.17 82.2384 44.3053C81.861 44.3053 81.4836 44.3053 81.1063 44.3053C81.1063 41.5514 81.1063 38.7975 81.1063 36.0436C81.4836 36.0436 81.861 36.0436 82.2384 36.0436C82.2143 36.214 82.2411 36.376 82.3192 36.5296C82.6448 36.2464 82.9952 36.0303 83.3704 35.8816ZM83.3704 36.8536C85.2499 36.9986 85.8698 37.9705 85.2303 39.7695C84.111 40.9143 83.1406 40.8062 82.3192 39.4455C82.0058 38.2935 82.3563 37.4296 83.3704 36.8536Z" fill="#00A9DA"/>
<path opacity="0.844" fill-rule="evenodd" clip-rule="evenodd" d="M101.322 35.8816C103.446 35.7953 104.525 36.8213 104.557 38.9595C103.154 38.9326 101.752 38.9595 100.352 39.0405C100.743 40.4244 101.606 40.8563 102.939 40.3364C103.24 40.0841 103.483 39.7871 103.667 39.4455C103.977 39.6143 104.274 39.8032 104.557 40.0125C103.41 41.6569 101.954 41.9808 100.19 40.9844C99.2765 39.7518 99.1418 38.4288 99.7858 37.0156C100.195 36.4672 100.707 36.0893 101.322 35.8816ZM101.646 36.8536C102.479 36.8651 103.072 37.2432 103.425 37.9875C102.454 38.2035 101.484 38.2035 100.514 37.9875C100.737 37.4394 101.115 37.0614 101.646 36.8536Z" fill="#00A9DA"/>
<path opacity="0.802" fill-rule="evenodd" clip-rule="evenodd" d="M111.834 35.8816C112.641 35.8071 113.396 35.9691 114.099 36.3676C114.285 36.8448 114.312 37.3308 114.18 37.8255C113.081 36.5421 112.003 36.5421 110.945 37.8255C110.432 39.6358 111.106 40.5268 112.967 40.4984C113.399 40.3363 113.776 40.0933 114.099 39.7695C114.511 40.6953 114.241 41.2622 113.29 41.4704C111.174 41.8082 109.934 40.9172 109.57 38.7975C109.672 37.2942 110.427 36.3222 111.834 35.8816Z" fill="#00A9DA"/>
<path opacity="0.816" fill-rule="evenodd" clip-rule="evenodd" d="M122.832 35.8816C125.494 35.8742 126.6 37.1701 126.147 39.7695C125.286 41.4255 123.966 41.9384 122.185 41.3084C120.578 40.1885 120.228 38.7577 121.134 37.0156C121.619 36.491 122.185 36.1131 122.832 35.8816ZM122.994 36.8536C124.661 36.8223 125.389 37.6323 125.177 39.2835C124.551 40.5824 123.607 40.8793 122.347 40.1745C121.343 38.8145 121.558 37.7076 122.994 36.8536Z" fill="#00A9DA"/>
<path opacity="0.81" fill-rule="evenodd" clip-rule="evenodd" d="M133.829 35.8816C135.562 35.655 136.721 36.3569 137.307 37.9875C137.517 40.6246 136.304 41.7856 133.668 41.4704C131.634 40.4323 131.176 38.8934 132.293 36.8536C132.753 36.4222 133.265 36.0982 133.829 35.8816ZM134.153 36.8536C135.825 36.9352 136.498 37.7993 136.174 39.4455C135.484 40.6403 134.541 40.8833 133.344 40.1745C132.401 38.7709 132.67 37.664 134.153 36.8536Z" fill="#00A9DA"/>
<path opacity="0.826" fill-rule="evenodd" clip-rule="evenodd" d="M158.088 35.8816C158.97 35.7648 159.752 35.9808 160.434 36.5296C160.512 36.376 160.539 36.214 160.514 36.0436C160.892 36.0436 161.269 36.0436 161.646 36.0436C161.646 37.8255 161.646 39.6075 161.646 41.3894C161.167 41.4526 160.736 41.3445 160.353 41.0654C157.973 42.0583 156.571 41.2754 156.148 38.7165C156.258 37.3848 156.905 36.4399 158.088 35.8816ZM158.574 36.8536C160.482 37.1113 161.048 38.1372 160.272 39.9315C158.688 41.0427 157.69 40.6378 157.28 38.7165C157.338 37.8128 157.769 37.1918 158.574 36.8536Z" fill="#00A9DA"/>
<path opacity="0.829" fill-rule="evenodd" clip-rule="evenodd" d="M169.895 35.8816C170.784 35.7423 171.565 35.9582 172.24 36.5296C172.317 36.376 172.345 36.214 172.32 36.0436C172.697 36.0436 173.076 36.0436 173.453 36.0436C173.453 37.8256 173.453 39.6075 173.453 41.3894C172.972 41.4526 172.542 41.3445 172.159 41.0654C169.783 42.0644 168.382 41.2814 167.954 38.7165C168.064 37.3848 168.711 36.4399 169.895 35.8816ZM170.38 36.8536C171.662 36.8149 172.363 37.4358 172.482 38.7165C172.274 40.3319 171.412 40.872 169.895 40.3365C168.729 38.9715 168.89 37.8106 170.38 36.8536Z" fill="#00A9DA"/>
<path opacity="0.863" fill-rule="evenodd" clip-rule="evenodd" d="M58.4644 36.0436C58.7879 36.0436 59.1114 36.0436 59.4348 36.0436C59.4348 37.5555 59.4348 39.0675 59.4348 40.5794C60.1896 40.5794 60.9442 40.5794 61.699 40.5794C61.699 39.0675 61.699 37.5555 61.699 36.0436C62.0763 36.0436 62.4538 36.0436 62.8311 36.0436C62.8316 38.3178 62.9394 40.5858 63.1545 42.8473C62.8311 42.8473 62.5076 42.8473 62.1842 42.8473C62.1842 42.3614 62.1842 41.8754 62.1842 41.3894C60.9442 41.3894 59.7044 41.3894 58.4644 41.3894C58.4644 39.6075 58.4644 37.8255 58.4644 36.0436Z" fill="#00A9DA"/>
<path opacity="0.811" fill-rule="evenodd" clip-rule="evenodd" d="M70.7557 36.0436C71.133 36.0436 71.5105 36.0436 71.8878 36.0436C71.8878 36.7455 71.8878 37.4476 71.8878 38.1495C72.5886 38.1495 73.2895 38.1495 73.9903 38.1495C73.9903 37.4476 73.9903 36.7455 73.9903 36.0436C74.3676 36.0436 74.745 36.0436 75.1223 36.0436C75.1223 37.8255 75.1223 39.6075 75.1223 41.3894C74.745 41.3894 74.3676 41.3894 73.9903 41.3894C73.9903 40.5794 73.9903 39.7695 73.9903 38.9595C73.2895 38.9595 72.5886 38.9595 71.8878 38.9595C71.8878 39.7695 71.8878 40.5794 71.8878 41.3894C71.5105 41.3894 71.133 41.3894 70.7557 41.3894C70.7557 39.6075 70.7557 37.8255 70.7557 36.0436Z" fill="#00A9DA"/>
<path opacity="0.772" fill-rule="evenodd" clip-rule="evenodd" d="M76.0927 36.0436C77.4404 36.0436 78.7882 36.0436 80.1359 36.0436C80.1359 36.3676 80.1359 36.6916 80.1359 37.0156C79.6507 37.0156 79.1655 37.0156 78.6804 37.0156C78.6804 38.4735 78.6804 39.9315 78.6804 41.3894C78.303 41.3894 77.9256 41.3894 77.5483 41.3894C77.5483 39.9315 77.5483 38.4735 77.5483 37.0156C77.0631 37.0156 76.5779 37.0156 76.0927 37.0156C76.0927 36.6916 76.0927 36.3676 76.0927 36.0436Z" fill="#00A9DA"/>
<path opacity="0.849" fill-rule="evenodd" clip-rule="evenodd" d="M94.3679 36.0436C95.5539 36.0436 96.74 36.0436 97.9259 36.0436C97.9259 37.5555 97.9259 39.0675 97.9259 40.5794C98.0876 40.5794 98.2494 40.5794 98.4111 40.5794C98.4111 41.3355 98.4111 42.0913 98.4111 42.8473C98.0338 42.8473 97.6563 42.8473 97.279 42.8473C97.279 42.3614 97.279 41.8754 97.279 41.3894C96.4704 41.3894 95.6617 41.3894 94.8531 41.3894C94.8531 41.8754 94.8531 42.3614 94.8531 42.8473C94.4758 42.8473 94.0983 42.8473 93.721 42.8473C93.6681 42.0303 93.722 41.2203 93.8827 40.4174C94.1365 40.2208 94.2712 39.9507 94.287 39.6075C94.3679 38.4207 94.3948 37.2328 94.3679 36.0436ZM95.3383 37.0156C95.8773 37.0156 96.4165 37.0156 96.9556 37.0156C96.9556 38.2035 96.9556 39.3915 96.9556 40.5794C96.353 40.6318 95.7599 40.5777 95.1766 40.4174C95.3325 39.2929 95.3863 38.1589 95.3383 37.0156Z" fill="#00A9DA"/>
<path opacity="0.786" fill-rule="evenodd" clip-rule="evenodd" d="M105.204 36.0436C106.497 36.0436 107.791 36.0436 109.085 36.0436C109.085 36.3676 109.085 36.6916 109.085 37.0156C108.6 37.0156 108.115 37.0156 107.63 37.0156C107.63 38.4735 107.63 39.9315 107.63 41.3894C107.252 41.3894 106.875 41.3894 106.497 41.3894C106.497 39.9315 106.497 38.4735 106.497 37.0156C106.066 37.0156 105.635 37.0156 105.204 37.0156C105.204 36.6916 105.204 36.3676 105.204 36.0436Z" fill="#00A9DA"/>
<path opacity="0.783" fill-rule="evenodd" clip-rule="evenodd" d="M115.716 36.0436C116.093 36.0436 116.471 36.0436 116.848 36.0436C116.821 36.6401 116.848 37.2339 116.929 37.8255C117.381 37.2101 117.893 36.6432 118.465 36.1246C118.959 35.9916 119.444 36.0185 119.921 36.2056C119.274 36.9616 118.573 37.6636 117.818 38.3115C118.651 39.3344 119.513 40.3334 120.406 41.3084C119.921 41.4165 119.436 41.4165 118.95 41.3084C118.336 40.5307 117.662 39.8017 116.929 39.1215C116.848 39.8756 116.821 40.6314 116.848 41.3894C116.471 41.3894 116.093 41.3894 115.716 41.3894C115.716 39.6075 115.716 37.8255 115.716 36.0436Z" fill="#00A9DA"/>
<path opacity="0.798" fill-rule="evenodd" clip-rule="evenodd" d="M127.684 36.0436C128.762 36.0436 129.84 36.0436 130.918 36.0436C130.918 36.3676 130.918 36.6916 130.918 37.0156C130.218 37.0156 129.517 37.0156 128.816 37.0156C128.816 38.4735 128.816 39.9315 128.816 41.3894C128.439 41.3894 128.061 41.3894 127.684 41.3894C127.684 39.6075 127.684 37.8255 127.684 36.0436Z" fill="#00A9DA"/>
<path opacity="0.792" fill-rule="evenodd" clip-rule="evenodd" d="M144.989 36.0436C146.444 36.0436 147.9 36.0436 149.355 36.0436C149.355 37.8255 149.355 39.6075 149.355 41.3894C148.978 41.3894 148.6 41.3894 148.223 41.3894C148.223 39.9315 148.223 38.4735 148.223 37.0156C147.522 37.0156 146.821 37.0156 146.121 37.0156C146.121 38.4735 146.121 39.9315 146.121 41.3894C145.743 41.3894 145.366 41.3894 144.989 41.3894C144.989 39.6075 144.989 37.8255 144.989 36.0436Z" fill="#00A9DA"/>
<path opacity="0.807" fill-rule="evenodd" clip-rule="evenodd" d="M151.296 36.0436C152.482 36.0436 153.668 36.0436 154.854 36.0436C154.854 37.8255 154.854 39.6075 154.854 41.3894C154.477 41.3894 154.099 41.3894 153.722 41.3894C153.722 39.9315 153.722 38.4735 153.722 37.0156C153.237 37.0156 152.751 37.0156 152.266 37.0156C152.315 38.2137 152.234 39.4016 152.024 40.5794C151.83 41.2668 151.372 41.5908 150.649 41.5514C150.672 41.266 150.618 40.9959 150.487 40.7414C150.985 40.393 151.227 39.907 151.215 39.2835C151.296 38.2049 151.323 37.1249 151.296 36.0436Z" fill="#00A9DA"/>
<path opacity="0.867" fill-rule="evenodd" clip-rule="evenodd" d="M163.425 36.0436C164.074 36.0167 164.721 36.0438 165.366 36.1246C166.471 36.5189 166.794 37.2749 166.337 38.3925C166.983 39.0578 167.145 39.8407 166.822 40.7414C166.574 40.9619 166.304 41.151 166.013 41.3084C165.153 41.3892 164.289 41.4163 163.425 41.3894C163.425 39.6075 163.425 37.8255 163.425 36.0436ZM164.396 37.0156C164.944 36.9006 165.321 37.0894 165.528 37.5826C165.314 38.0684 164.936 38.3114 164.396 38.3115C164.396 37.8795 164.396 37.4476 164.396 37.0156ZM164.396 39.1215C164.778 39.0951 165.154 39.122 165.528 39.2025C166.086 39.5108 166.141 39.8889 165.69 40.3364C165.276 40.5112 164.844 40.5922 164.396 40.5794C164.396 40.0935 164.396 39.6075 164.396 39.1215Z" fill="#00A9DA"/>
<path opacity="0.917" fill-rule="evenodd" clip-rule="evenodd" d="M175.232 36.0436C175.555 36.0436 175.878 36.0436 176.202 36.0436C176.202 36.7455 176.202 37.4476 176.202 38.1495C176.957 38.1495 177.711 38.1495 178.466 38.1495C178.466 37.4476 178.466 36.7455 178.466 36.0436C178.79 36.0436 179.113 36.0436 179.436 36.0436C179.436 37.8255 179.436 39.6075 179.436 41.3894C179.113 41.3894 178.79 41.3894 178.466 41.3894C178.466 40.5794 178.466 39.7695 178.466 38.9595C177.711 38.9595 176.957 38.9595 176.202 38.9595C176.202 39.7695 176.202 40.5794 176.202 41.3894C175.878 41.3894 175.555 41.3894 175.232 41.3894C175.232 39.6075 175.232 37.8255 175.232 36.0436Z" fill="#00A9DA"/>
<path opacity="0.846" fill-rule="evenodd" clip-rule="evenodd" d="M188.493 36.0436C189.248 36.0436 190.002 36.0436 190.757 36.0436C190.757 37.8255 190.757 39.6075 190.757 41.3894C190.434 41.3894 190.11 41.3894 189.787 41.3894C189.815 40.6854 189.787 39.9835 189.706 39.2835C189.208 39.9029 188.75 40.5509 188.331 41.2274C187.854 41.4145 187.369 41.4414 186.876 41.3084C187.414 40.6065 187.955 39.9044 188.493 39.2025C187.434 38.7602 187.083 37.9773 187.442 36.8536C187.761 36.5215 188.11 36.2514 188.493 36.0436ZM188.817 37.0156C189.14 37.0156 189.464 37.0156 189.787 37.0156C189.787 37.4476 189.787 37.8795 189.787 38.3115C189.126 38.4478 188.64 38.2318 188.331 37.6635C188.44 37.3946 188.602 37.1787 188.817 37.0156Z" fill="#00A9DA"/>
</g>
<defs>
<clipPath id="clip0_46_190">
<rect width="191" height="52" fill="white"/>
</clipPath>
</defs>
</svg>
