<svg width="191" height="52" viewBox="0 0 191 52" fill="none" xmlns="http://www.w3.org/2000/svg">
<g clip-path="url(#clip0_53_99)">
<path opacity="0.963" fill-rule="evenodd" clip-rule="evenodd" d="M23.6931 -0.0810547C24.6634 -0.0810547 25.6338 -0.0810547 26.6042 -0.0810547C31.5396 1.05431 34.7471 4.0782 36.2269 8.9906C36.9759 11.8646 36.922 14.7265 36.0652 17.5763C35.3858 19.4559 34.7389 21.3459 34.1245 23.246C32.5863 27.6482 33.9069 30.8071 38.0868 32.7227C40.4239 33.7995 42.6342 33.5834 44.7176 32.0747C46.2233 30.5128 47.7866 29.0009 49.4077 27.5389C51.2223 27.2186 52.2467 28.0015 52.4805 29.8878C51.4248 35.0223 48.352 38.2352 43.2621 39.5264C42.8848 39.6345 42.5073 39.6345 42.13 39.5264C42.6579 38.8135 42.4691 38.4085 41.5639 38.3115C40.6164 38.312 40.2661 38.7438 40.5127 39.6074C38.0066 39.6802 35.7154 38.9782 33.6393 37.5015C34.4696 40.0124 35.8981 42.1452 37.9251 43.9003C39.6264 44.9957 41.4054 45.9676 43.2621 46.8161C44.5593 47.7303 44.9097 48.9452 44.3133 50.461C43.7232 51.2292 42.9415 51.6342 41.9683 51.676C41.8783 51.738 41.8245 51.819 41.8065 51.9189C41.2675 51.9189 40.7283 51.9189 40.1892 51.9189C40.1713 51.819 40.1174 51.738 40.0275 51.676C38.7929 51.2692 37.5531 51.1072 36.3078 51.19C35.5233 50.4314 34.6338 49.8104 33.6393 49.327C32.4268 49.6919 31.672 49.2598 31.3751 48.0311C29.0121 46.1596 27.2331 43.8377 26.0381 41.0654C24.3749 44.6752 21.8143 47.4562 18.3561 49.408C17.9226 50.6622 17.0601 51.0672 15.7684 50.623C15.0747 50.8372 14.3738 51.0262 13.666 51.19C13.5273 51.517 13.3117 51.76 13.0191 51.9189C12.5878 51.9189 12.1565 51.9189 11.7252 51.9189C11.604 51.6361 11.3884 51.4741 11.0783 51.433C10.4362 51.5459 9.78928 51.6269 9.1376 51.676C9.04768 51.738 8.99377 51.819 8.97587 51.9189C8.54459 51.9189 8.11333 51.9189 7.68205 51.9189C7.0327 51.2943 6.46665 50.5924 5.98391 49.813C5.40797 48.3909 5.75838 47.284 7.03514 46.4922C8.31609 46.1175 9.60991 45.7935 10.9166 45.5202C13.7961 44.4719 16.1142 42.69 17.8709 40.1744C15.3399 39.3986 12.7522 39.1286 10.108 39.3644C8.19796 40.0022 6.31114 40.7041 4.4475 41.4703C3.5477 41.8737 2.7121 41.7927 1.94073 41.2274C0.946291 39.6756 1.0002 38.1636 2.10246 36.6915C4.922 34.0933 8.26435 32.7974 12.1296 32.8037C13.5696 32.9064 14.9982 33.0954 16.4153 33.3707C22.2471 33.786 26.2094 31.2751 28.3023 25.8379C29.408 21.496 28.3568 17.7971 25.1486 14.7414C24.5555 14.3634 23.9627 13.9854 23.3696 13.6074C21.4772 12.7961 19.5905 11.9861 17.7091 11.1775C15.351 8.60372 15.1623 5.87683 17.1431 2.99683C18.9357 1.11335 21.119 0.0873884 23.6931 -0.0810547ZM23.6931 2.18686C24.3689 2.12891 24.7732 2.39889 24.906 2.99683C24.2454 3.464 23.6793 3.356 23.2079 2.67284C23.3437 2.47278 23.5055 2.31078 23.6931 2.18686ZM20.2968 2.34885C21.8118 2.30644 22.2162 2.95442 21.5097 4.29278C20.8122 5.22554 19.9227 5.57651 18.8412 5.34574C18.3043 4.68948 18.3312 4.0145 18.9221 3.32081C19.3541 2.93164 19.8124 2.60765 20.2968 2.34885ZM30.6473 4.13078C32.5434 4.48975 33.7564 5.6237 34.2862 7.53265C34.4778 9.03254 33.9118 9.38353 32.5881 8.58561C31.3858 7.6903 30.631 6.50234 30.3239 5.02175C30.3656 4.69626 30.4735 4.39926 30.6473 4.13078ZM26.9276 6.2367C28.1514 6.35015 29.2026 6.83613 30.0813 7.69465C30.6363 8.32064 31.0677 9.02262 31.3751 9.80057C31.5207 11.3374 30.8469 11.8504 29.3535 11.3395C27.6463 10.5214 26.5681 9.19843 26.119 7.37066C26.2095 6.85033 26.4791 6.47235 26.9276 6.2367ZM31.6177 14.3364C33.3021 15.2625 34.4072 14.7765 34.9331 12.8784C34.9816 13.9323 34.8199 14.9582 34.4479 15.9563C33.8198 17.2498 33.065 17.3577 32.1837 16.2803C31.7582 15.699 31.5697 15.051 31.6177 14.3364ZM50.0546 30.3738C50.2163 30.3738 50.3781 30.3738 50.5398 30.3738C50.6 30.7823 50.4652 31.1063 50.1355 31.3457C49.8623 31.0509 49.8355 30.7269 50.0546 30.3738ZM51.1867 31.8317C51.3931 31.9752 51.3931 32.1372 51.1867 32.3177C51.015 32.1679 51.015 32.0059 51.1867 31.8317ZM46.9818 33.1277C48.2168 33.0737 48.4323 33.5327 47.6287 34.5046C46.467 35.1749 46.0627 34.878 46.4158 33.6137C46.6613 33.5062 46.85 33.3443 46.9818 33.1277ZM49.4077 33.9376C49.9566 34.1315 50.0375 34.4555 49.6503 34.9096C49.2421 35.339 48.8916 35.312 48.5991 34.8286C48.7919 34.4471 49.0615 34.1502 49.4077 33.9376ZM43.1003 35.2336C44.0382 35.2762 44.3346 35.7081 43.9898 36.5295C43.1696 37.3593 42.3879 37.3593 41.6448 36.5295C41.9367 35.8579 42.4219 35.426 43.1003 35.2336ZM45.688 36.6915C46.7643 36.7072 46.926 37.1122 46.1732 37.9065C45.3556 38.3212 45.0053 38.0782 45.1219 37.1775C45.3674 37.0701 45.5562 36.9081 45.688 36.6915Z" fill="white"/>
<path opacity="0.715" fill-rule="evenodd" clip-rule="evenodd" d="M31.6177 5.91277C32.6285 5.87102 33.0058 6.33 32.7498 7.28971C31.8362 7.31722 31.4589 6.85824 31.6177 5.91277Z" fill="white"/>
<path opacity="0.78" fill-rule="evenodd" clip-rule="evenodd" d="M28.0597 8.66638C29.0529 8.55556 29.5651 8.98755 29.5961 9.96233C29.0385 10.3654 28.5533 10.2575 28.1406 9.63835C28.0605 9.31878 28.0335 8.99479 28.0597 8.66638Z" fill="white"/>
<path opacity="0.947" fill-rule="evenodd" clip-rule="evenodd" d="M62.8311 12.0689C65.4951 11.6241 67.7324 12.3801 69.5428 14.3368C70.048 15.1329 70.3715 15.9969 70.5131 16.9287C70.621 19.5745 70.621 22.2205 70.5131 24.8664C69.9988 27.5414 68.4086 29.1343 65.7422 29.6452C63.1743 30.1573 60.9909 29.4822 59.1922 27.6203C58.4415 26.5526 58.0101 25.3647 57.8984 24.0564C57.7905 21.9505 57.7905 19.8446 57.8984 17.7386C58.1232 14.5782 59.7673 12.6883 62.8311 12.0689ZM63.3163 15.3087C64.6547 15.0625 65.7598 15.4405 66.6317 16.4427C66.789 16.7492 66.8969 17.0732 66.9551 17.4147C67.063 19.7365 67.063 22.0585 66.9551 24.3804C66.3778 26.1685 65.1648 26.8435 63.3163 26.4053C62.1386 25.9242 61.5187 25.0332 61.4564 23.7324C61.3134 21.5118 61.3673 19.2978 61.6181 17.0907C61.8948 16.193 62.4609 15.5991 63.3163 15.3087Z" fill="white"/>
<path opacity="0.935" fill-rule="evenodd" clip-rule="evenodd" d="M16.5771 13.2029C21.7268 12.9174 25.2309 15.1583 27.0893 19.9257C26.9815 20.0337 26.8738 20.0337 26.7659 19.9257C23.5271 16.8329 19.8613 16.2388 15.7684 18.1437C11.6401 20.8293 10.1036 24.582 11.1592 29.4023C8.43947 26.4401 7.73866 23.0382 9.05673 19.1967C10.544 15.8964 13.0508 13.8985 16.5771 13.2029Z" fill="white"/>
<path opacity="0.936" fill-rule="evenodd" clip-rule="evenodd" d="M77.71 16.9282C78.9538 16.9696 80.1398 17.2666 81.268 17.8191C81.8869 18.355 82.0757 19.0299 81.834 19.844C81.7532 20.141 81.5644 20.33 81.268 20.411C80.729 20.5191 80.1898 20.5191 79.6507 20.411C78.8799 20.0368 78.0713 19.9288 77.2248 20.087C76.8304 20.2124 76.5338 20.4554 76.3353 20.816C76.181 22.6138 76.235 24.3957 76.497 26.1618C76.9321 26.5504 77.4443 26.7664 78.0335 26.8098C78.8421 26.5938 79.6507 26.3777 80.4594 26.1618C81.7862 26.2781 82.2445 26.9802 81.834 28.2677C81.4758 28.7328 81.0175 29.0837 80.4594 29.3207C78.4709 29.9439 76.5302 29.8358 74.6372 28.9967C73.6353 28.3147 73.0154 27.3696 72.7773 26.1618C72.6694 24.2718 72.6694 22.382 72.7773 20.492C73.5235 18.0532 75.1676 16.8653 77.71 16.9282Z" fill="white"/>
<path opacity="0.944" fill-rule="evenodd" clip-rule="evenodd" d="M85.4729 16.9287C86.224 16.9401 86.79 17.264 87.171 17.9007C87.3968 19.1286 87.4777 20.3706 87.4136 21.6265C88.547 21.5996 89.6791 21.6265 90.8099 21.7075C93.3555 22.1856 94.4606 23.7245 94.1253 26.3243C93.7703 28.2466 92.6112 29.2995 90.6482 29.4832C88.7613 29.5913 86.8746 29.5913 84.9877 29.4832C84.4217 29.3483 84.0712 28.9972 83.9365 28.4303C83.8286 24.9745 83.8286 21.5185 83.9365 18.0627C84.2739 17.4236 84.786 17.0455 85.4729 16.9287ZM87.4136 24.5424C88.2779 24.5155 89.1404 24.5426 90.0013 24.6234C90.669 25.0496 90.8038 25.6166 90.4056 26.3243C90.2843 26.4258 90.1494 26.5068 90.0013 26.5673C89.1404 26.6482 88.2779 26.6752 87.4136 26.6483C87.4136 25.9464 87.4136 25.2443 87.4136 24.5424Z" fill="white"/>
<path opacity="0.957" fill-rule="evenodd" clip-rule="evenodd" d="M98.0876 16.9287C98.7819 17.0201 99.348 17.3441 99.7858 17.9007C100.864 19.7365 101.942 21.5726 103.02 23.4085C104.226 21.3427 105.493 19.3178 106.821 17.3337C107.746 16.837 108.635 16.918 109.489 17.5767C109.756 21.3422 109.809 25.1222 109.651 28.9163C108.679 29.9192 107.655 29.9731 106.578 29.0782C106.37 27.3661 106.262 25.6383 106.255 23.8944C105.629 25.1765 104.901 26.3914 104.072 27.5393C103.045 27.979 102.156 27.7899 101.403 26.9723C100.905 25.9208 100.366 24.8948 99.7858 23.8944C99.7783 25.6383 99.6705 27.3661 99.4623 29.0782C98.4855 29.9407 97.5151 29.9407 96.5512 29.0782C96.2852 25.3666 96.2312 21.6408 96.3895 17.9007C96.8412 17.3381 97.4073 17.0141 98.0876 16.9287Z" fill="white"/>
<path opacity="0.95" fill-rule="evenodd" clip-rule="evenodd" d="M114.099 16.9281C114.973 16.8673 115.647 17.1913 116.12 17.9001C116.174 19.844 116.228 21.7879 116.282 23.7318C117.651 21.5571 119.079 19.4241 120.568 17.3331C121.624 16.735 122.567 16.8701 123.398 17.7381C123.664 21.3956 123.718 25.0675 123.56 28.7536C123.03 29.6623 122.248 29.9592 121.215 29.6446C120.871 29.4628 120.575 29.2199 120.325 28.9156C120.124 27.0349 120.016 25.1451 120.002 23.2458C118.673 25.3952 117.244 27.474 115.716 29.4826C114.728 29.9054 113.839 29.7703 113.047 29.0776C112.781 25.366 112.727 21.6402 112.886 17.9001C113.162 17.3995 113.566 17.0755 114.099 16.9281Z" fill="white"/>
<path opacity="0.954" fill-rule="evenodd" clip-rule="evenodd" d="M128.169 16.9287C129.005 16.9558 129.625 17.3337 130.029 18.0627C130.11 19.3034 130.136 20.5454 130.11 21.7885C131.296 21.7885 132.482 21.7885 133.668 21.7885C133.596 20.3669 133.677 18.963 133.91 17.5767C135.02 16.7288 136.044 16.8367 136.983 17.9007C137.091 21.5185 137.091 25.1364 136.983 28.7543C136.489 29.5861 135.761 29.883 134.8 29.6452C134.42 29.5892 134.124 29.4001 133.91 29.0782C133.677 27.5837 133.596 26.0716 133.668 24.5424C132.482 24.5424 131.296 24.5424 130.11 24.5424C130.136 25.8934 130.11 27.2433 130.029 28.5923C129.289 29.7972 128.291 30.0402 127.037 29.3212C126.882 29.0914 126.747 28.8484 126.633 28.5923C126.525 25.0823 126.525 21.5726 126.633 18.0627C126.97 17.4236 127.482 17.0455 128.169 16.9287Z" fill="white"/>
<path opacity="0.947" fill-rule="evenodd" clip-rule="evenodd" d="M143.533 16.9283C145.707 16.6016 147.621 17.1415 149.274 18.5483C150.143 19.9853 150.493 21.5513 150.326 23.2461C150.364 24.5096 150.229 25.7516 149.921 26.9719C148.832 28.8956 147.16 29.8136 144.908 29.7258C142.42 29.8313 140.694 28.7514 139.732 26.486C139.579 24.2069 139.633 21.939 139.894 19.6822C140.667 18.1791 141.88 17.2611 143.533 16.9283ZM144.018 20.0062C144.614 19.9795 145.207 20.0064 145.797 20.0872C146.271 20.2913 146.567 20.6424 146.687 21.1402C146.836 22.7721 146.782 24.392 146.525 26C145.683 26.7034 144.74 26.8383 143.695 26.405C143.446 26.1492 143.257 25.8521 143.129 25.514C142.979 23.8821 143.033 22.2621 143.29 20.6542C143.516 20.3999 143.759 20.1838 144.018 20.0062Z" fill="white"/>
<path opacity="0.939" fill-rule="evenodd" clip-rule="evenodd" d="M159.059 16.9287C159.81 16.9401 160.376 17.264 160.757 17.9007C160.954 19.0218 161.062 20.1558 161.08 21.3025C162.012 19.8295 163.063 18.4526 164.234 17.1717C165.56 16.7555 166.422 17.1876 166.822 18.4677C166.704 18.6943 166.623 18.9373 166.579 19.1966C165.604 20.5784 164.661 21.9824 163.749 23.4085C164.913 24.9497 165.937 26.5696 166.822 28.2683C166.351 29.637 165.436 30.0419 164.072 29.4832C163.013 28.1516 162.015 26.7747 161.08 25.3524C161.056 26.5505 160.948 27.7384 160.757 28.9162C159.928 29.8062 158.984 29.9413 157.927 29.3212C157.733 29.175 157.598 28.9861 157.522 28.7543C157.469 27.5664 157.415 26.3783 157.361 25.1904C156.477 26.6096 155.534 27.9866 154.53 29.3212C153.566 29.9258 152.676 29.8448 151.862 29.0782C151.555 28.4892 151.555 27.8952 151.862 27.2963C152.791 26.0285 153.681 24.7326 154.53 23.4085C153.619 21.9824 152.675 20.5784 151.7 19.1966C151.433 18.3233 151.676 17.6483 152.428 17.1717C153.095 17.0334 153.742 17.0875 154.369 17.3337C155.425 18.6677 156.423 20.0447 157.361 21.4645C157.415 20.3306 157.469 19.1966 157.522 18.0627C157.86 17.4236 158.372 17.0455 159.059 16.9287Z" fill="white"/>
<path opacity="0.935" fill-rule="evenodd" clip-rule="evenodd" d="M170.218 16.9287C170.988 17.0034 171.554 17.3813 171.916 18.0627C171.97 19.3047 172.025 20.5465 172.078 21.7885C173.178 20.2595 174.337 18.7746 175.555 17.3337C176.491 16.9154 177.326 17.0504 178.062 17.7387C178.366 18.2733 178.366 18.8133 178.062 19.3586C177.033 20.6858 176.035 22.0357 175.07 23.4085C176.152 24.8437 177.203 26.3017 178.224 27.7823C178.397 29.013 177.858 29.6609 176.606 29.7262C176.242 29.705 175.891 29.624 175.555 29.4832C174.395 27.9982 173.237 26.5134 172.078 25.0284C172.025 26.2163 171.97 27.4044 171.916 28.5923C171.321 29.7123 170.432 30.0094 169.248 29.4832C169.058 29.2942 168.871 29.1053 168.682 28.9163C168.416 25.3668 168.361 21.8029 168.52 18.2247C168.813 17.4183 169.379 16.9862 170.218 16.9287Z" fill="white"/>
<path opacity="0.95" fill-rule="evenodd" clip-rule="evenodd" d="M190.919 18.0618C190.919 21.6257 190.919 25.1895 190.919 28.7534C190.358 29.6573 189.549 29.9543 188.493 29.6444C188.099 29.519 187.803 29.276 187.604 28.9154C187.398 27.0369 187.29 25.1471 187.28 23.2456C186.095 25.0815 184.908 26.9175 183.722 28.7534C183.046 29.6625 182.157 29.9595 181.054 29.6444C180.649 29.4553 180.353 29.1584 180.164 28.7534C180.056 25.1356 180.056 21.5176 180.164 17.8998C181.235 16.6063 182.314 16.6063 183.399 17.8998C183.452 19.8438 183.507 21.7877 183.561 23.7316C184.929 21.5568 186.357 19.4239 187.846 17.3328C189.101 16.6888 190.125 16.9318 190.919 18.0618Z" fill="white"/>
<path opacity="0.958" fill-rule="evenodd" clip-rule="evenodd" d="M18.6795 18.2248C22.3688 17.7892 25.2529 19.0851 27.3319 22.1126C27.3879 27.3729 24.8811 30.6937 19.8116 32.0752C17.5254 32.4911 15.3691 32.1402 13.3425 31.0223C12.1207 29.0856 11.7163 26.9797 12.1295 24.7045C13.0066 21.2071 15.1899 19.047 18.6795 18.2248ZM22.8844 21.7886C23.487 21.8006 23.9722 22.0436 24.34 22.5176C24.2387 22.6391 24.1579 22.7742 24.0974 22.9226C23.3352 23.2505 22.7153 23.0885 22.2375 22.4366C22.4072 22.1586 22.6227 21.9427 22.8844 21.7886ZM16.2536 23.4086C17.1709 23.5748 17.3056 24.0068 16.6579 24.7045C16.2952 24.9932 15.8908 25.0742 15.445 24.9475C15.2746 24.7227 15.2476 24.4797 15.3641 24.2185C15.6438 23.9104 15.9403 23.6404 16.2536 23.4086ZM22.3992 26.3245C22.6011 26.4596 22.7089 26.6755 22.7227 26.9724C22.5391 28.3243 21.7575 29.0801 20.3776 29.2403C19.2103 29.0693 18.4825 28.4213 18.1943 27.2964C19.6371 27.0727 21.0386 26.7487 22.3992 26.3245Z" fill="white"/>
<path opacity="0.938" fill-rule="evenodd" clip-rule="evenodd" d="M37.9251 19.1958C38.3811 19.155 38.8123 19.236 39.2189 19.4388C40.7901 21.1804 41.3023 23.2053 40.7553 25.5136C40.2913 27.4894 39.1322 28.8663 37.2782 29.6444C36.8468 29.7525 36.4157 29.7525 35.9843 29.6444C35.5676 29.0928 35.5676 28.5529 35.9843 28.0245C35.1844 27.3279 35.1306 26.5719 35.8226 25.7566C35.1222 24.9163 35.23 24.1873 36.1461 23.5696C35.6585 22.5238 35.9281 21.7409 36.9547 21.2207C36.676 20.2467 36.9995 19.5718 37.9251 19.1958Z" fill="white"/>
<path opacity="0.946" fill-rule="evenodd" clip-rule="evenodd" d="M-0.080864 33.6139C-0.080864 32.642 -0.080864 31.67 -0.080864 30.6981C1.24224 27.4421 3.66815 25.9032 7.19687 26.0812C8.11372 26.5372 8.41021 27.2662 8.08637 28.2681C7.81748 28.6597 7.46706 28.9566 7.03514 29.1591C7.17683 30.2338 6.69165 30.8008 5.57959 30.86C5.60025 32.0815 5.00726 32.6214 3.80059 32.48C3.70341 33.4957 3.16432 33.8738 2.18332 33.6139C1.81005 34.3601 1.21704 34.6031 0.404318 34.3429C0.197123 34.1147 0.0353962 33.8717 -0.080864 33.6139Z" fill="white"/>
<path opacity="0.823" fill-rule="evenodd" clip-rule="evenodd" d="M185.582 35.7197C185.742 37.5807 185.797 39.4707 185.744 41.3895C185.42 41.3895 185.097 41.3895 184.773 41.3895C184.801 40.3082 184.773 39.2282 184.693 38.1496C183.612 39.3662 182.508 40.5541 181.377 41.7135C181.215 39.8266 181.162 37.9368 181.215 36.0437C181.592 36.0437 181.971 36.0437 182.348 36.0437C182.32 37.0711 182.348 38.097 182.428 39.1216C183.454 37.9599 184.505 36.826 185.582 35.7197Z" fill="white"/>
<path opacity="0.831" fill-rule="evenodd" clip-rule="evenodd" d="M66.0656 35.8812C68.2996 35.6889 69.3778 36.7149 69.3002 38.959C67.9525 38.959 66.6047 38.959 65.257 38.959C65.4831 40.1312 66.1838 40.6441 67.3594 40.498C67.8141 40.2317 68.1914 39.8808 68.4915 39.445C69.5025 39.8332 69.5563 40.3462 68.6533 40.984C67.2204 41.8367 65.8997 41.7018 64.6909 40.579C63.8262 39.0041 64.0148 37.5732 65.257 36.2861C65.5505 36.1635 65.82 36.0286 66.0656 35.8812ZM66.3891 36.8531C67.3541 36.7961 67.9472 37.228 68.1681 38.1491C67.1963 38.176 66.2259 38.1489 65.257 38.0681C65.558 37.578 65.9353 37.1731 66.3891 36.8531Z" fill="white"/>
<path opacity="0.807" fill-rule="evenodd" clip-rule="evenodd" d="M83.3704 35.8818C85.7228 35.8894 86.774 37.0775 86.5241 39.4457C85.7051 41.6384 84.3035 42.1244 82.3192 40.9036C82.2384 42.0363 82.2115 43.1703 82.2384 44.3055C81.861 44.3055 81.4836 44.3055 81.1063 44.3055C81.1063 41.5516 81.1063 38.7977 81.1063 36.0438C81.4836 36.0438 81.861 36.0438 82.2384 36.0438C82.2143 36.2142 82.2411 36.3762 82.3192 36.5298C82.6448 36.2466 82.9952 36.0305 83.3704 35.8818ZM83.3704 36.8538C85.2499 36.9988 85.8698 37.9707 85.2303 39.7697C84.111 40.9145 83.1406 40.8064 82.3192 39.4457C82.0058 38.2938 82.3563 37.4298 83.3704 36.8538Z" fill="white"/>
<path opacity="0.844" fill-rule="evenodd" clip-rule="evenodd" d="M101.322 35.882C103.446 35.7956 104.525 36.8217 104.557 38.9599C103.154 38.933 101.752 38.9599 100.352 39.0409C100.743 40.4248 101.606 40.8566 102.939 40.3368C103.24 40.0844 103.483 39.7875 103.667 39.4458C103.977 39.6146 104.274 39.8035 104.557 40.0128C103.41 41.6572 101.954 41.9812 100.19 40.9848C99.2765 39.7522 99.1418 38.4292 99.7858 37.0159C100.195 36.4676 100.707 36.0897 101.322 35.882ZM101.646 36.8539C102.479 36.8654 103.072 37.2435 103.425 37.9879C102.454 38.2038 101.484 38.2038 100.514 37.9879C100.737 37.4397 101.115 37.0618 101.646 36.8539Z" fill="white"/>
<path opacity="0.802" fill-rule="evenodd" clip-rule="evenodd" d="M111.834 35.8819C112.641 35.8073 113.396 35.9693 114.099 36.3678C114.285 36.8451 114.312 37.3311 114.18 37.8258C113.081 36.5423 112.003 36.5423 110.945 37.8258C110.432 39.6361 111.106 40.527 112.967 40.4987C113.399 40.3365 113.776 40.0935 114.099 39.7697C114.511 40.6955 114.241 41.2625 113.29 41.4707C111.174 41.8084 109.934 40.9174 109.57 38.7978C109.672 37.2945 110.427 36.3225 111.834 35.8819Z" fill="white"/>
<path opacity="0.816" fill-rule="evenodd" clip-rule="evenodd" d="M122.832 35.8819C125.494 35.8744 126.6 37.1704 126.147 39.7697C125.286 41.4258 123.966 41.9387 122.185 41.3087C120.578 40.1888 120.228 38.7579 121.134 37.0158C121.619 36.4913 122.185 36.1134 122.832 35.8819ZM122.994 36.8538C124.661 36.8226 125.389 37.6325 125.177 39.2837C124.551 40.5826 123.607 40.8795 122.347 40.1747C121.343 38.8148 121.558 37.7079 122.994 36.8538Z" fill="white"/>
<path opacity="0.81" fill-rule="evenodd" clip-rule="evenodd" d="M133.829 35.8813C135.562 35.6547 136.721 36.3566 137.307 37.9872C137.517 40.6243 136.304 41.7854 133.668 41.4701C131.634 40.4321 131.176 38.8931 132.293 36.8533C132.753 36.4219 133.265 36.0979 133.829 35.8813ZM134.153 36.8533C135.825 36.9349 136.498 37.799 136.174 39.4452C135.484 40.6401 134.541 40.883 133.344 40.1742C132.401 38.7706 132.67 37.6637 134.153 36.8533Z" fill="white"/>
<path opacity="0.826" fill-rule="evenodd" clip-rule="evenodd" d="M158.088 35.8813C158.97 35.7645 159.752 35.9805 160.434 36.5293C160.512 36.3757 160.539 36.2137 160.514 36.0433C160.892 36.0433 161.269 36.0433 161.646 36.0433C161.646 37.8253 161.646 39.6072 161.646 41.3891C161.167 41.4523 160.736 41.3443 160.353 41.0651C157.973 42.058 156.571 41.2751 156.148 38.7162C156.258 37.3845 156.905 36.4396 158.088 35.8813ZM158.574 36.8533C160.482 37.111 161.048 38.1369 160.272 39.9312C158.688 41.0425 157.69 40.6375 157.28 38.7162C157.338 37.8125 157.769 37.1915 158.574 36.8533Z" fill="white"/>
<path opacity="0.829" fill-rule="evenodd" clip-rule="evenodd" d="M169.895 35.8818C170.784 35.7425 171.565 35.9584 172.24 36.5298C172.317 36.3762 172.345 36.2142 172.32 36.0438C172.697 36.0438 173.076 36.0438 173.453 36.0438C173.453 37.8257 173.453 39.6077 173.453 41.3896C172.972 41.4528 172.542 41.3447 172.159 41.0656C169.783 42.0646 168.382 41.2815 167.954 38.7167C168.064 37.3849 168.711 36.44 169.895 35.8818ZM170.38 36.8538C171.662 36.815 172.363 37.436 172.482 38.7167C172.274 40.3321 171.412 40.8722 169.895 40.3366C168.729 38.9717 168.89 37.8108 170.38 36.8538Z" fill="white"/>
<path opacity="0.863" fill-rule="evenodd" clip-rule="evenodd" d="M58.4644 36.0439C58.7879 36.0439 59.1114 36.0439 59.4348 36.0439C59.4348 37.5558 59.4348 39.0679 59.4348 40.5798C60.1896 40.5798 60.9442 40.5798 61.699 40.5798C61.699 39.0679 61.699 37.5558 61.699 36.0439C62.0763 36.0439 62.4538 36.0439 62.8311 36.0439C62.8316 38.3182 62.9394 40.5861 63.1545 42.8477C62.8311 42.8477 62.5076 42.8477 62.1842 42.8477C62.1842 42.3617 62.1842 41.8757 62.1842 41.3897C60.9442 41.3897 59.7044 41.3897 58.4644 41.3897C58.4644 39.6078 58.4644 37.8259 58.4644 36.0439Z" fill="white"/>
<path opacity="0.811" fill-rule="evenodd" clip-rule="evenodd" d="M70.7557 36.0439C71.133 36.0439 71.5105 36.0439 71.8878 36.0439C71.8878 36.7459 71.8878 37.4479 71.8878 38.1499C72.5886 38.1499 73.2895 38.1499 73.9903 38.1499C73.9903 37.4479 73.9903 36.7459 73.9903 36.0439C74.3676 36.0439 74.745 36.0439 75.1223 36.0439C75.1223 37.8259 75.1223 39.6078 75.1223 41.3897C74.745 41.3897 74.3676 41.3897 73.9903 41.3897C73.9903 40.5798 73.9903 39.7698 73.9903 38.9598C73.2895 38.9598 72.5886 38.9598 71.8878 38.9598C71.8878 39.7698 71.8878 40.5798 71.8878 41.3897C71.5105 41.3897 71.133 41.3897 70.7557 41.3897C70.7557 39.6078 70.7557 37.8259 70.7557 36.0439Z" fill="white"/>
<path opacity="0.772" fill-rule="evenodd" clip-rule="evenodd" d="M76.0927 36.0439C77.4404 36.0439 78.7882 36.0439 80.1359 36.0439C80.1359 36.3679 80.1359 36.6919 80.1359 37.0159C79.6507 37.0159 79.1655 37.0159 78.6804 37.0159C78.6804 38.4739 78.6804 39.9318 78.6804 41.3897C78.303 41.3897 77.9256 41.3897 77.5483 41.3897C77.5483 39.9318 77.5483 38.4739 77.5483 37.0159C77.0631 37.0159 76.5779 37.0159 76.0927 37.0159C76.0927 36.6919 76.0927 36.3679 76.0927 36.0439Z" fill="white"/>
<path opacity="0.849" fill-rule="evenodd" clip-rule="evenodd" d="M94.3679 36.0439C95.5539 36.0439 96.74 36.0439 97.9259 36.0439C97.9259 37.5558 97.9259 39.0679 97.9259 40.5798C98.0876 40.5798 98.2494 40.5798 98.4111 40.5798C98.4111 41.3358 98.4111 42.0917 98.4111 42.8477C98.0338 42.8477 97.6563 42.8477 97.279 42.8477C97.279 42.3617 97.279 41.8757 97.279 41.3897C96.4704 41.3897 95.6617 41.3897 94.8531 41.3897C94.8531 41.8757 94.8531 42.3617 94.8531 42.8477C94.4758 42.8477 94.0983 42.8477 93.721 42.8477C93.6681 42.0306 93.722 41.2206 93.8827 40.4178C94.1365 40.2211 94.2712 39.9511 94.287 39.6078C94.3679 38.421 94.3948 37.2331 94.3679 36.0439ZM95.3383 37.0159C95.8773 37.0159 96.4165 37.0159 96.9556 37.0159C96.9556 38.2038 96.9556 39.3919 96.9556 40.5798C96.353 40.6321 95.7599 40.578 95.1766 40.4178C95.3325 39.2932 95.3863 38.1593 95.3383 37.0159Z" fill="white"/>
<path opacity="0.786" fill-rule="evenodd" clip-rule="evenodd" d="M105.204 36.0439C106.497 36.0439 107.791 36.0439 109.085 36.0439C109.085 36.3679 109.085 36.6919 109.085 37.0159C108.6 37.0159 108.115 37.0159 107.63 37.0159C107.63 38.4739 107.63 39.9318 107.63 41.3897C107.252 41.3897 106.875 41.3897 106.497 41.3897C106.497 39.9318 106.497 38.4739 106.497 37.0159C106.066 37.0159 105.635 37.0159 105.204 37.0159C105.204 36.6919 105.204 36.3679 105.204 36.0439Z" fill="white"/>
<path opacity="0.783" fill-rule="evenodd" clip-rule="evenodd" d="M115.716 36.0439C116.093 36.0439 116.471 36.0439 116.848 36.0439C116.821 36.6404 116.848 37.2343 116.929 37.8259C117.381 37.2105 117.893 36.6435 118.465 36.1249C118.959 35.9919 119.444 36.0188 119.921 36.2059C119.274 36.962 118.573 37.6639 117.818 38.3119C118.651 39.3347 119.513 40.3337 120.406 41.3087C119.921 41.4168 119.436 41.4168 118.95 41.3087C118.336 40.531 117.662 39.802 116.929 39.1218C116.848 39.8759 116.821 40.6318 116.848 41.3897C116.471 41.3897 116.093 41.3897 115.716 41.3897C115.716 39.6078 115.716 37.8259 115.716 36.0439Z" fill="white"/>
<path opacity="0.798" fill-rule="evenodd" clip-rule="evenodd" d="M127.684 36.0439C128.762 36.0439 129.84 36.0439 130.918 36.0439C130.918 36.3679 130.918 36.6919 130.918 37.0159C130.218 37.0159 129.517 37.0159 128.816 37.0159C128.816 38.4739 128.816 39.9318 128.816 41.3897C128.439 41.3897 128.061 41.3897 127.684 41.3897C127.684 39.6078 127.684 37.8259 127.684 36.0439Z" fill="white"/>
<path opacity="0.792" fill-rule="evenodd" clip-rule="evenodd" d="M144.989 36.0439C146.444 36.0439 147.9 36.0439 149.355 36.0439C149.355 37.8259 149.355 39.6078 149.355 41.3897C148.978 41.3897 148.6 41.3897 148.223 41.3897C148.223 39.9318 148.223 38.4739 148.223 37.0159C147.522 37.0159 146.821 37.0159 146.121 37.0159C146.121 38.4739 146.121 39.9318 146.121 41.3897C145.743 41.3897 145.366 41.3897 144.989 41.3897C144.989 39.6078 144.989 37.8259 144.989 36.0439Z" fill="white"/>
<path opacity="0.807" fill-rule="evenodd" clip-rule="evenodd" d="M151.296 36.0439C152.482 36.0439 153.668 36.0439 154.854 36.0439C154.854 37.8259 154.854 39.6078 154.854 41.3897C154.477 41.3897 154.099 41.3897 153.722 41.3897C153.722 39.9318 153.722 38.4739 153.722 37.0159C153.237 37.0159 152.751 37.0159 152.266 37.0159C152.315 38.214 152.234 39.4019 152.024 40.5798C151.83 41.2671 151.372 41.5911 150.649 41.5517C150.672 41.2663 150.618 40.9963 150.487 40.7418C150.985 40.3933 151.227 39.9073 151.215 39.2838C151.296 38.2053 151.323 37.1253 151.296 36.0439Z" fill="white"/>
<path opacity="0.867" fill-rule="evenodd" clip-rule="evenodd" d="M163.425 36.0433C164.074 36.0164 164.721 36.0434 165.366 36.1243C166.471 36.5185 166.794 37.2746 166.337 38.3922C166.983 39.0575 167.145 39.8404 166.822 40.7411C166.574 40.9616 166.304 41.1506 166.013 41.3081C165.153 41.3889 164.289 41.4159 163.425 41.3891C163.425 39.6071 163.425 37.8252 163.425 36.0433ZM164.396 37.0152C164.944 36.9002 165.321 37.0891 165.528 37.5822C165.314 38.068 164.936 38.311 164.396 38.3112C164.396 37.8791 164.396 37.4473 164.396 37.0152ZM164.396 39.1211C164.778 39.0947 165.154 39.1216 165.528 39.2021C166.086 39.5104 166.141 39.8885 165.69 40.3361C165.276 40.5109 164.844 40.5919 164.396 40.5791C164.396 40.0931 164.396 39.6071 164.396 39.1211Z" fill="white"/>
<path opacity="0.917" fill-rule="evenodd" clip-rule="evenodd" d="M175.232 36.0439C175.555 36.0439 175.878 36.0439 176.202 36.0439C176.202 36.7459 176.202 37.4479 176.202 38.1499C176.957 38.1499 177.711 38.1499 178.466 38.1499C178.466 37.4479 178.466 36.7459 178.466 36.0439C178.79 36.0439 179.113 36.0439 179.436 36.0439C179.436 37.8259 179.436 39.6078 179.436 41.3897C179.113 41.3897 178.79 41.3897 178.466 41.3897C178.466 40.5798 178.466 39.7698 178.466 38.9598C177.711 38.9598 176.957 38.9598 176.202 38.9598C176.202 39.7698 176.202 40.5798 176.202 41.3897C175.878 41.3897 175.555 41.3897 175.232 41.3897C175.232 39.6078 175.232 37.8259 175.232 36.0439Z" fill="white"/>
<path opacity="0.846" fill-rule="evenodd" clip-rule="evenodd" d="M188.493 36.0439C189.248 36.0439 190.002 36.0439 190.757 36.0439C190.757 37.8259 190.757 39.6078 190.757 41.3897C190.434 41.3897 190.11 41.3897 189.787 41.3897C189.815 40.6857 189.787 39.9838 189.706 39.2838C189.208 39.9033 188.75 40.5513 188.331 41.2277C187.854 41.4148 187.369 41.4417 186.876 41.3087C187.414 40.6068 187.955 39.9047 188.493 39.2028C187.434 38.7606 187.083 37.9777 187.442 36.8539C187.761 36.5218 188.11 36.2518 188.493 36.0439ZM188.817 37.0159C189.14 37.0159 189.464 37.0159 189.787 37.0159C189.787 37.4479 189.787 37.8798 189.787 38.3119C189.126 38.4481 188.64 38.2322 188.331 37.6639C188.44 37.395 188.602 37.179 188.817 37.0159Z" fill="white"/>
</g>
<defs>
<clipPath id="clip0_53_99">
<rect width="191" height="52" fill="white"/>
</clipPath>
</defs>
</svg>
